<?xml version="1.0" standalone="no"?><!DOCTYPE svg PUBLIC "-//W3C//DTD SVG 1.1//EN" "http://www.w3.org/Graphics/SVG/1.1/DTD/svg11.dtd"><svg t="1604027839794" class="icon" viewBox="0 0 1024 1024" version="1.1" xmlns="http://www.w3.org/2000/svg" p-id="3793" xmlns:xlink="http://www.w3.org/1999/xlink" width="200" height="200"><defs><style type="text/css"></style></defs><path d="M736.41984 556.34432a185.29792 185.29792 0 1 0-185.29792 185.29792 185.29792 185.29792 0 0 0 185.29792-185.29792z" fill="#F4CA1C" p-id="3794"></path><path d="M898.23232 418.2016L604.16 121.66656A152.576 152.576 0 0 0 496.49152 76.8h-0.33792l-267.45856 0.60416A151.9616 151.9616 0 0 0 77.3888 228.7104L76.8 496.18944a152.6016 152.6016 0 0 0 44.88192 108.032l296.5504 294.03136a151.94624 151.94624 0 0 0 214.016-0.46592l265.55392-265.56928a151.95648 151.95648 0 0 0 0.43008-214.016z m-49.152 165.28896l-265.55392 265.5744a82.90816 82.90816 0 0 1-116.736 0.256l-296.576-294.0416a83.24096 83.24096 0 0 1-24.48384-58.94144l0.5632-267.47392A82.91328 82.91328 0 0 1 228.864 146.30912l267.46368-0.60416h0.1792a83.26656 83.26656 0 0 1 58.75712 24.47872l294.0416 296.53504a82.90816 82.90816 0 0 1-0.24064 116.77184z m-450.85184-332.2368a144.70144 144.70144 0 1 0 144.69632 144.70656 144.86528 144.86528 0 0 0-144.69632-144.70656z m0 220.50304a75.776 75.776 0 1 1 75.776-75.776 75.88352 75.88352 0 0 1-75.776 75.776z" fill="#595BB3" p-id="3795"></path></svg>